<svg width="48" height="48" viewBox="0 0 48 48" fill="none" xmlns="http://www.w3.org/2000/svg"><circle cx="24" cy="24" r="23" stroke="#2D3440" stroke-width="2"/><path d="M27.2 13c0-1.3-.5-2.6-1.4-3.5-.9-1-2-1.5-3.3-1.5-1.2 0-2.4.5-3.3 1.5-.9 1-1.3 2.2-1.3 3.6v14.7a7.7 7.7 0 0 0-1 8.4 7 7 0 0 0 2 2.6c1 .7 2 1 3.1 1.2 1.1 0 2.2-.1 3.2-.6 1-.4 1.9-1.2 2.6-2.1a7.8 7.8 0 0 0 1.1-6.7c-.3-1.1-1-2.2-1.7-3V13.1Zm.2 19.8c0 .9-.2 1.7-.6 2.5a5 5 0 0 1-1.6 2 4.5 4.5 0 0 1-4.7.2c-.7-.4-1.3-1-1.8-1.7a5.4 5.4 0 0 1-.5-5c.4-.8.9-1.5 1.5-2V13c0-.8.3-1.6.8-2.2.6-.6 1.3-.9 2-.9.8 0 1.5.3 2 1 .5.5.8 1.3.8 2v15.6a5 5 0 0 1 1.5 1.8c.4.7.6 1.6.6 2.4Z" fill="#2D3440"/><path d="M23.5 29.6V13.1a1 1 0 0 0-.2-.7.9.9 0 0 0-.7-.3c-.2 0-.5.1-.7.3a1 1 0 0 0-.2.7v16.5c-.6.3-1.2.7-1.5 1.4a3.2 3.2 0 0 0 .6 3.8c.5.5 1.1.7 1.8.7s1.3-.2 1.8-.7A3.2 3.2 0 0 0 25 31c-.3-.7-.8-1.1-1.5-1.4ZM34.7 12H29v2h5.6v-2ZM34.7 16H29v2h5.6v-2ZM34.7 20H29v2h5.6v-2ZM34.7 24H29v2h5.6v-2Z" fill="#2D3440"/></svg>