<svg width="48" height="48" viewBox="0 0 48 48" fill="none" xmlns="http://www.w3.org/2000/svg"><circle cx="24" cy="24" r="23" stroke="#2D3440" stroke-width="2"/><path d="M33.3 26.5c-.4-9-8.3-17.9-8.6-18.3h-.2l-.1-.2h-.7l-.2.1-.1.1c-.4.4-8.3 9.2-8.7 18.3v1.2a13 13 0 0 0 9 12.3h.5c.1 0 8.8-2.5 9.1-12.3v-1.2ZM17.1 23c1.8 1.7 3.8 3 6 4v4.3c-2.2-1.2-5.6-3.2-6.6-5 0-1.1.2-2.2.5-3.3Zm1.8-4.8c1.1 1.3 2.6 2.3 4.2 2.9v3.7c-2-.9-3.9-2.2-5.4-3.8.3-1 .7-2 1.2-2.8ZM30.4 21c-1.6 1.7-3.5 3-5.5 3.8v-3.7c1.6-.6 3-1.6 4.2-3l1.3 2.9Zm-5.5-2v-7.6c1.2 1.6 2.3 3.2 3.3 5-.8 1.1-2 2-3.3 2.6Zm0 12.3v-4.3c2.2-1 4.3-2.3 6.1-4 .3 1.1.5 2.2.5 3.3-1 1.8-4.4 3.8-6.6 5Zm-1.8-12.2a8.2 8.2 0 0 1-3.3-2.7c1-1.8 2-3.5 3.3-5v7.7Zm-6.4 10.2c2 1.7 4.1 3 6.4 4.1v4.2c-1.6-.7-3-1.8-4.2-3.3a11.5 11.5 0 0 1-2.2-5Zm8.2 8.3v-4.2c2.3-1 4.5-2.4 6.4-4-.3 1.8-1 3.5-2.2 5a10.5 10.5 0 0 1-4.2 3.2Z" fill="#2D3440"/></svg>