<svg width="49" height="48" viewBox="0 0 49 48" fill="none" xmlns="http://www.w3.org/2000/svg"><circle cx="24.5" cy="24" r="23" stroke="#2D3440" stroke-width="2"/><g clip-path="url(#a)"><path d="M35.2 18.3a12.1 12.1 0 0 0 .5-9.6 1 1 0 0 0-.3-.4 1 1 0 0 0-1.6.3c-1.3 2.2-4.2 6-6.2 6h-.1l-3-.2c-1 0-1.9.1-2.9.3-2.1-.2-5-3.9-6.3-6.1a1 1 0 0 0-.4-.5 1 1 0 0 0-1.2.1 1 1 0 0 0-.4.5 12 12 0 0 0 .5 9.6c-1.9.2-4.2.8-5 2.2a2.1 2.1 0 0 0 0 2.2c.2.4.6.7 1 1l1.4.3c.9 0 1.7-.2 2.6-.5V25a34.4 34.4 0 0 0 2.4 6.6l-.8 2.5a4.3 4.3 0 0 0 1.2 3.3c1.5 1.7 4.2 2.5 8 2.5 3.7 0 6.4-.8 7.9-2.5a4.4 4.4 0 0 0 1.1-3.3c-.2-.9-.4-1.7-.8-2.5l.6-1.4c.7-1.7 1.3-3.4 1.8-5.2l.1-1.6c.8.3 1.6.4 2.5.5.4 0 1-.1 1.4-.3.4-.3.8-.6 1-1a2.1 2.1 0 0 0 0-2.2c-.8-1.4-3.1-2-5-2.2Zm-1-6.7c.4 2.1 0 4.3-1 6.2a7.5 7.5 0 0 0-2.8-2.1c1.5-1.2 2.8-2.6 3.9-4.1Zm-19.4 0a17 17 0 0 0 3.8 4c-.7.3-1.4.8-2 1.3l-.8.9c-1-2-1.4-4-1-6.2Zm-4.1 10.1c-.1-.1 0-.2 0-.2.2-.4 1.4-1 3.7-1.3l-.3 1c-1.3.6-3.1 1-3.4.5Zm22.4 3a33.3 33.3 0 0 1-2.4 6.8v.6c.4.7.7 1.5.9 2.3a2.3 2.3 0 0 1-.7 1.8c-.7.8-2.5 1.8-6.4 1.8-3.9 0-5.6-1-6.3-1.8-.5-.5-.7-1.1-.7-1.8l.8-2.3.1-.3v-.3a16 16 0 0 0-.7-2c-.7-1.5-1.3-3.1-1.8-4.8a7 7 0 0 1 2.3-6.4c1.5-1.5 5-1.9 6.3-1.9 1.3 0 4.7.4 6.4 2a7.1 7.1 0 0 1 2.2 6.3Zm5.2-3c-.2.5-2 .1-3.3-.6l-.3-.9c2.2.3 3.4.9 3.7 1.3v.2Z" fill="#2D3440"/></g><defs><clipPath id="a"><path fill="#fff" d="M8.5 8h32v32h-32z"/></clipPath></defs></svg>